<?xml version="1.0" standalone="no"?>
<!DOCTYPE svg PUBLIC "-//W3C//DTD SVG 1.1//EN" "http://www.w3.org/Graphics/SVG/1.1/DTD/svg11.dtd" >
<!--
2013-9-30: Created.
-->
<svg>
<metadata>
Created by iconfont
</metadata>
<defs>

<font id="iconfont" horiz-adv-x="1024" >
  <font-face
    font-family="iconfont"
    font-weight="500"
    font-stretch="normal"
    units-per-em="1024"
    ascent="896"
    descent="-128"
  />
    <missing-glyph />
    
    <glyph glyph-name="x" unicode="x" horiz-adv-x="1001"
d="M281 543q-27 -1 -53 -1h-83q-18 0 -36.5 -6t-32.5 -18.5t-23 -32t-9 -45.5v-76h912v41q0 16 -0.5 30t-0.5 18q0 13 -5 29t-17 29.5t-31.5 22.5t-49.5 9h-133v-97h-438v97zM955 310v-52q0 -23 0.5 -52t0.5 -58t-10.5 -47.5t-26 -30t-33 -16t-31.5 -4.5q-14 -1 -29.5 -0.5
t-29.5 0.5h-32l-45 128h-439l-44 -128h-29h-34q-20 0 -45 1q-25 0 -41 9.5t-25.5 23t-13.5 29.5t-4 30v167h911zM163 247q-12 0 -21 -8.5t-9 -21.5t9 -21.5t21 -8.5q13 0 22 8.5t9 21.5t-9 21.5t-22 8.5zM316 123q-8 -26 -14 -48q-5 -19 -10.5 -37t-7.5 -25t-3 -15t1 -14.5
t9.5 -10.5t21.5 -4h37h67h81h80h64h36q23 0 34 12t2 38q-5 13 -9.5 30.5t-9.5 34.5q-5 19 -11 39h-368zM336 498v228q0 11 2.5 23t10 21.5t20.5 15.5t34 6h188q31 0 51.5 -14.5t20.5 -52.5v-227h-327z" />
    

    
    <glyph glyph-name="cmstubiaozitihua15" unicode="&#59226;" d="M128.192 559.392c6.72 0 11.648 0 16.512 0 245.632 0 491.136-0.064 736.96 0.192C892.672 559.584 896 556.896 896 545.376c-0.32-163.968-0.32-327.744 0-491.712 0-10.368-3.136-13.248-13.184-13.248-247.232 0.32-494.592 0.192-741.696 0.128C132.352 40.544 128 41.312 128 52.384c0.384 163.392 0.192 326.912 0.192 490.304C128.192 547.616 128.192 552.544 128.192 559.392zM188.8 525.664C193.408 520.8 195.648 518.368 197.952 516.256 280.384 440.352 362.88 364.448 445.376 288.672c13.312-12.096 26.752-24.32 41.408-34.688 16.768-11.712 35.264-11.968 51.584 0.832 17.28 13.312 33.408 27.776 49.408 42.496 78.656 72 157.184 144.192 235.776 216.512 3.328 3.008 6.016 6.656 10.496 11.904C618.048 525.664 405.248 525.664 188.8 525.664zM187.904 78.496c1.152-1.408 2.304-3.008 3.648-4.48 213.888 0 427.648 0 641.408 0 0.832 1.344 1.536 2.496 2.368 3.84-4.544 3.392-9.344 6.528-13.568 10.304-65.984 60.48-132.16 120.832-197.76 181.76C615.488 277.728 610.688 276.576 602.944 269.408 586.24 254.24 569.024 239.52 551.04 225.76 525.888 206.816 499.2 206.112 473.792 225.312c-18.624 14.08-36.288 29.568-53.696 45.184C412.672 277.152 408.192 277.088 400.768 270.304c-66.304-61.376-132.992-122.432-199.616-183.296C197.376 83.552 192.256 81.376 187.904 78.496zM387.648 300C313.088 368.224 240.128 435.36 164.992 504.16c0-137.536 0-271.552 0-408.576C240.448 164.704 313.344 231.84 387.648 300zM859.648 499.68c-1.152 0.704-2.368 1.344-3.456 1.92-72.896-66.88-145.536-133.888-219.392-201.664 74.496-68.48 147.392-135.488 222.784-204.608C859.648 232.736 859.648 366.304 859.648 499.68z"  horiz-adv-x="1024" />

    
    <glyph glyph-name="63" unicode="&#58956;" d="M333.214 300c16.457 0 29.8 13.344 29.8 29.8 0 16.486-13.343 29.801-29.8 29.801s-29.8-13.314-29.8-29.801C303.415 313.344 316.757 300 333.214 300zM512.015 300c16.457 0 29.8 13.344 29.8 29.8 0 16.486-13.343 29.801-29.8 29.801s-29.8-13.314-29.8-29.801C482.214 313.344 495.558 300 512.015 300zM690.785 300c16.457 0 29.8 13.344 29.8 29.8 0 16.486-13.343 29.801-29.8 29.801s-29.8-13.314-29.8-29.801C660.985 313.344 674.328 300 690.785 300zM954.635 638.335c-2.91 2.91-6.723 4.365-10.535 4.365L79.9 642.7c-3.813 0-7.625-1.455-10.535-4.365S65 631.612 65 627.8l0-572.37c0-3.813 1.455-7.625 4.365-10.535s6.722-4.365 10.535-4.365l685.4 0 78.865-78.865c4.133-4.132 10.506-5.602 16.238-3.229 5.733 2.371 9.196 7.915 9.196 13.765l0 68.33 74.5 0c3.813 0 7.625 1.455 10.535 4.365S959 51.618 959 55.431L959 627.8C959 631.612 957.545 635.425 954.635 638.335zM929.2 70.331l-89.4 0 0-62.161-62.146 62.161L94.8 70.331 94.8 612.9l834.4 0L929.2 70.331z"  horiz-adv-x="1024" />

    
    <glyph glyph-name="xinxi" unicode="&#58983;" d="M957.468213 599.502281c-0.116657 0.23536 0 0.470721-0.116657 0.822738 0 0 0 0-0.11768 0.11768-1.762133 4.465708-4.935406 8.107655-8.754385 10.988262-0.881067 0.644683-1.703805 1.233084-2.6432 1.819438-4.054339 2.410909-8.579399 4.113691-13.630439 4.113691L89.912287 617.364091c-5.052063 0-9.516748-1.702782-13.57211-4.113691-0.998747-0.586354-1.762133-1.174756-2.6432-1.819438-3.759627-2.880607-6.992251-6.522554-8.812713-10.988262 0-0.11768-0.11768-0.11768-0.11768-0.11768-0.116657-0.352017 0-0.586354-0.116657-0.822738-0.99977-2.937912-1.763157-5.933129-1.763157-9.16473L62.886771 11.024469c0-15.040555 12.103666-27.084868 27.02654-27.084868l421.145759 0 421.147806 0c15.040555 0 27.084868 12.044314 27.084868 27.084868L959.291744 590.337551C959.289698 593.568129 958.526311 596.564369 957.468213 599.502281M863.697549 563.251659 511.058047 233.23234 158.419568 563.251659 863.697549 563.251659zM511.058047 38.051009 116.997156 38.051009 116.997156 527.882104 492.551554 176.359029c5.228071-4.817726 11.92561-7.284917 18.505469-7.284917 6.640234 0 13.279445 2.467191 18.566868 7.284917l375.553375 351.523075 0-489.830071L511.058047 38.052033z"  horiz-adv-x="1024" />

    
    <glyph glyph-name="tongxunlu" unicode="&#58893;" d="M993.345328 121.174172c0.026606 140.753721 0 281.534048 0.026606 422.318468 0.279363 15.978926-1.143033 32.142048-5.884011 47.330982-15.878642 50.484811-58.626235 89.204671-106.61725 96.512101-14.258749 1.759063-28.625968 0.819668-42.942021 1.061169-230.364645-0.150426-460.727243 0.273223-691.093934-0.211824-46.430472-0.757247-87.892793-35.597753-108.261703-80.290651-9.653871-19.678178-14.537088-42.055838-14.479783-64.402799 0.054235-155.186432-0.025583-310.369793 0.027629-465.554178 0.587378-12.887518 1.283226-25.955138 4.7727-38.328957 8.619308-34.92851 31.390941-65.219397 60.85602-81.109296 19.978007-11.553127 42.883693-14.58416 65.125253-14.097066 238.677984 0.060375 477.358015 0 716.036 0 12.419867 0.63445 25.113981 1.180895 37.001729 5.638417 38.530548 11.704576 70.229504 46.968731 80.637552 89.508593C995.494271 66.079366 992.812185 93.97674 993.345328 121.174172zM946.862667 48.253372c-7.455809-25.048489-26.39823-45.452191-49.193399-53.152571-13.31219-4.580319-27.429723-4.214998-41.213657-4.188392L148.593781-9.087591c-17.664312-0.148379-35.882232 4.096295-50.226938 15.981996C77.719594 22.720859 65.973062 50.316358 66.364989 77.873993c-0.195451 110.522186-0.030699 221.015719-0.083911 331.536882 294.957779 0.027629 589.889975 0 884.847753 0 0.083911-105.092523 0-210.215746 0.053212-315.374784C951.243441 78.694685 951.464475 62.928606 946.862667 48.253372zM951.182043 525.632877c-294.954709 0-589.912487-0.028653-884.873336 0-0.054235 15.040555-0.753153 30.503734 3.654226 44.968168 7.142677 24.226774 22.210861 45.632293 41.715077 59.247382 12.865006 8.702196 28.070312 12.401448 43.084261 12.06785L852.325547 641.916277c11.050684-0.091074 22.37766 0.605797 33.093722-3.00238 27.682479-8.336876 51.228755-31.806403 61.60508-61.308321C952.747701 561.019829 950.874027 542.977917 951.182043 525.632877z"  horiz-adv-x="1024" />

    
    <glyph glyph-name="fenxiang" unicode="&#58933;" d="M913.908 251.614c-24.73 0-44.736-20.047-44.736-44.733l0-228.997c0-19.781-16.061-35.845-35.799-35.845L189.057-57.961c-19.742 0-35.76 16.063-35.76 35.845L153.297 622.155c0 19.74 16.018 35.805 35.76 35.805l201.332 0c24.73 0 44.734 20.044 44.734 44.728 0 24.689-20.004 44.734-44.734 44.734L189.057 747.422c-69.067 0-125.267-56.2-125.267-125.268l0-644.272c0-69.107 56.199-125.307 125.267-125.307l644.315 0c69.063 0 125.309 56.199 125.309 125.307L958.681 206.88C958.681 231.567 938.632 251.614 913.908 251.614zM460.815 107.922c1.355-0.131 2.713-0.176 4.07-0.176 22.892 0 42.411 17.461 44.513 40.747 2.492 27.705 14.617 110.208 40.309 158.354 35.279 65.918 100.888 188.646 276.531 211.755 3.018 0.435 5.559 1.923 8.359 2.887l-75.193-157.391c-10.682-22.277-1.229-49.021 21.096-59.617 6.215-2.971 12.736-4.372 19.213-4.372 16.723 0 32.74 9.365 40.398 25.426L955.833 567.755c5.125 10.719 5.781 23.018 1.795 34.183-3.936 11.205-12.207 20.349-22.889 25.473L692.524 743.045c-22.235 10.593-48.979 1.139-59.656-21.095-10.681-22.278-1.227-49.02 21.099-59.615l127.318-60.836c-196.518-40.007-275.739-187.463-310.447-252.458-39.523-73.877-50.116-187.766-50.555-192.536C418.052 131.865 436.216 110.155 460.815 107.922z"  horiz-adv-x="1024" />

    
    <glyph glyph-name="xinyongqia" unicode="&#58949;" d="M867.709933-73.968274 156.289044-73.968274c-50.355875 0-91.219561 40.845267-91.219561 91.218538L65.069483 363.830771l893.857964 0 0-346.58153C958.92847-33.123007 918.120043-73.968274 867.709933-73.968274M630.568954 163.208521 594.089112 35.471254l218.918965 0 36.443004 127.737266L630.568954 163.208521zM65.070506 582.748712c0 50.355875 40.863686 91.219561 91.219561 91.219561l711.420889 0c50.41011 0 91.218538-40.863686 91.218538-91.219561l0-91.200118-893.857964 0L65.07153 582.748712z"  horiz-adv-x="1024" />

    
    <glyph glyph-name="4" unicode="&#58896;" d="M1011.03616 187.27808c0 109.30176-94.74048 204.04224-204.04224 204.04224s-204.04224-94.74048-204.04224-204.04224c0-72.86784 36.43392-131.1744 87.4496-174.87872-50.9952-14.58176-116.59264-21.85216-196.75136-21.85216l0 0 0 0c-240.47616 0-364.3392 87.4496-364.3392 87.4496-21.87264 14.58176-43.7248 7.29088-58.30656-7.29088-14.56128-21.85216-7.29088-43.7248 7.29088-58.28608 7.29088 0 145.73568-102.01088 415.35488-102.01088l0 0 0 0c233.18528 0 364.3392 72.86784 408.064 94.72C967.31136 41.5424 1011.03616 114.41024 1011.03616 187.27808zM806.99392 70.68544c-65.57696 0-116.59264 51.01568-116.59264 116.59264 0 65.57696 50.9952 116.59264 116.59264 116.59264 65.57696 0 116.59264-51.01568 116.59264-116.59264 0-43.7248-21.87264-80.15872-50.9952-102.01088 0 0-7.29088 0-7.29088-7.29088l0 0C843.42784 77.97632 828.84608 70.68544 806.99392 70.68544zM260.46464 201.85984c109.30176 0 204.04224 94.72 204.04224 204.04224 0 72.86784-36.43392 131.1744-87.4496 174.87872 50.9952 14.58176 116.59264 21.85216 196.75136 21.85216l0 0 0 0c240.47616 0 364.3392-87.4496 364.3392-87.4496 7.29088-7.29088 14.56128-7.29088 21.87264-7.29088 14.56128 0 29.14304 7.29088 36.43392 21.85216 14.56128 21.85216 7.29088 43.7248-7.29088 58.28608-7.29088 0-145.73568 102.01088-415.35488 102.01088l0 0 0 0c-233.18528 0-364.3392-72.86784-408.064-94.74048-65.57696-36.43392-109.30176-102.01088-109.30176-182.1696C56.44288 296.57984 151.16288 201.85984 260.46464 201.85984zM260.46464 529.76512c65.57696 0 116.59264-51.01568 116.59264-116.59264 0-65.57696-50.9952-116.59264-116.59264-116.59264s-116.59264 51.01568-116.59264 116.59264c0 43.7248 21.87264 80.15872 50.9952 102.01088 0 0 7.29088 0 7.29088 7.29088l0 0C224.03072 522.47424 245.90336 529.76512 260.46464 529.76512z"  horiz-adv-x="1024" />

    
    <glyph glyph-name="icon32206" unicode="&#58892;" d="M745.6-116l-16 0c-108.8 0-320 102.4-425.6 208C201.6 200.8 96 408.8 96 517.6L96 533.6l9.6 12.8C156.8 623.2 230.4 716 294.4 716c64 0 166.4-99.2 195.2-169.6 25.6-60.8 3.2-96-12.8-112-22.4-22.4-44.8-35.2-60.8-48-6.4-3.2-19.2-12.8-22.4-16 0-25.6 48-73.6 83.2-108.8 35.2-35.2 83.2-83.2 108.8-83.2 3.2 0 9.6 12.8 12.8 19.2 9.6 16 25.6 38.4 48 60.8 16 16 38.4 25.6 60.8 25.6 89.6 0 220.8-134.4 220.8-208 0-64-92.8-137.6-169.6-188.8L745.6-116zM160 514.4c3.2-92.8 99.2-284.8 192-374.4 92.8-92.8 281.6-188.8 374.4-192 89.6 60.8 137.6 112 137.6 134.4 0 35.2-102.4 144-156.8 144-6.4 0-12.8-3.2-16-6.4-16-16-28.8-35.2-38.4-51.2-16-25.6-32-51.2-67.2-51.2-54.4 0-105.6 51.2-153.6 102.4-51.2 48-102.4 102.4-102.4 153.6 0 38.4 25.6 51.2 51.2 67.2 16 9.6 32 19.2 51.2 38.4 9.6 9.6 9.6 22.4 0 41.6C406.4 578.4 320 652 294.4 652 275.2 652 220.8 604 160 514.4z"  horiz-adv-x="1024" />

    
    <glyph glyph-name="shuniu1" unicode="&#58884;" d="M90.352941 186.848l662.588235 0L752.941176 638.552471c0 35.930353-9.456941 60.235294-60.235294 60.235294L87.823059 698.787765C52.464941 698.787765 30.117647 674.512941 30.117647 638.552471l0-391.499294C30.117647 185.462588 35.809882 186.848 90.352941 186.848zM180.705882 129.323294 60.235294 129.323294c-59.934118 0-60.235294-1.686588-60.235294-60.084706l0-60.114824c0-26.985412 0.030118-30.057412 60.235294-30.057412l30.117647 0C90.352941-20.933647 78.215529 93.091765 180.705882 129.323294zM301.176471 126.612706c-83.215059 0-150.588235-67.433412-150.588235-150.618353 0-83.124706 67.373176-150.558118 150.588235-150.558118 83.184941 0 150.588235 67.433412 150.588235 150.558118C451.764706 59.179294 384.331294 126.612706 301.176471 126.612706zM1234.823529 126.612706l0 240.911059-180.705882 271.028706-180.705882 0c-48.188235 0-60.235294-16.233412-60.235294-60.235294l0-451.704471L421.647059 126.612706c101.165176-27.648 90.352941-150.588235 90.352941-150.588235s271.058824-0.150588 271.058824 0c0 55.356235 22.076235 117.037176 60.235294 150.588235 31.623529 27.768471 69.421176 60.235294 150.588235 60.235294 62.433882 0 118.964706-32.466824 150.588235-60.235294 38.159059-33.551059 60.235294-95.232 60.235294-150.588235 0-32.918588 60.235294-31.081412 60.235294 0l0 90.352941C1264.941176 86.857412 1254.972235 126.612706 1234.823529 126.612706zM993.852235 126.612706c-83.184941 0-150.558118-67.433412-150.558118-150.618353 0-83.124706 67.373176-150.558118 150.558118-150.558118 83.215059 0 150.618353 67.433412 150.618353 150.558118C1144.470588 59.179294 1077.067294 126.612706 993.852235 126.612706z"  horiz-adv-x="1265" />

    
    <glyph glyph-name="tianxie" unicode="&#58890;" d="M362.45659 118.433758l-9.598612 100.474342c0 33.534767 23.934109 38.335097 23.934109 38.335097s162.684196 33.533744 215.288275 38.334073c47.869241 9.534144 52.670593-28.798906 52.670593-28.798906s14.33652-90.880847 14.33652-134.010133c4.797259-43.068911-33.471322-47.868217-33.471322-47.868217s-191.416588-4.740978-229.688239-4.740978C362.45659 80.159036 362.45659 118.433758 362.45659 118.433758L362.45659 118.433758zM285.851888 199.832649l-33.470299 67.008136 19.134803 43.069935 19.134803 110.077048 52.607148 153.206334-81.279165-86.139869 0-43.132356-19.197224 9.597589c0 0-4.736884 129.274272 105.276718 158.006663 0 0-76.541257 23.935132-129.21185-62.267159C204.511325 520.587977 190.173782 482.254927 185.375499 463.120125l-47.870264-100.538811 9.598612-100.538811 114.874307-91.004667 57.345056-4.734838 0-23.935132-28.67304 19.134803c0 0-95.739505-23.936155-90.876754-105.279788 0 0 14.334473 33.475416 38.269605 47.870264 0 0-62.204737-105.335047-23.935132-172.405605 0 0 0 38.269605 9.537214 67.070558 9.537214 33.469276 47.869241 86.139869 47.869241 86.139869l43.068911-19.134803 19.135826 4.798283 4.799306-4.798283-9.597589-23.935132-47.870264 14.334473c0 0-19.074428-28.735461-14.33652-90.939175 4.799306-57.469899 28.672016-91.00569 47.869241-110.072955 0 0-19.197224 38.268582-19.197224 81.338516s9.599635 76.603679 9.599635 76.603679l47.870264 0 47.869241 38.268582 0-28.668946-47.869241-14.400988c0 0 0-14.398942 4.736884-33.468253 9.598612-19.200294 19.197224-52.735062 67.067488-67.070558 0 0-23.935132 19.200294-33.533744 47.870264-4.736884 28.733415-4.736884 33.534767-4.736884 33.534767l38.270629 19.133779 9.537214 43.069935 191.416588 4.860704 23.935132-43.129286 38.269605-9.600659c0 0 14.33652-57.468876-19.134803-86.138846 0 0 33.471322 9.599635 43.069935 47.869241 14.33652 38.268582 4.738931 62.203714 4.738931 62.203714l-43.008536 0-9.600659 28.735461 47.870264-14.334473 47.868217 23.935132c0 0 33.472346-38.33612 47.809889-71.869864 19.134803-38.268582 23.935132-81.338516 19.134803-100.474342 0 0 19.197224 33.534767 14.334473 81.405031-4.733814 52.603055-43.005466 129.269156-71.740928 148.343583l-47.806819-33.469276-14.396895 14.394848 0 4.739954 71.739904 28.733415c0 0 14.397918-14.398942 19.199271-28.733415 0 0 4.735861 14.334473-4.800329 33.534767l4.800329 0c0 0 52.606125-28.735461 90.87573-124.539434 0 0-4.733814 119.739105-90.87573 182.003194 0 0 0-23.935132-19.199271-28.794813 0 0-28.672016 23.935132-62.203714 28.794813l-19.075451-14.393825L697.417455 204.572604l76.543304 33.535791 100.476389 148.407028-23.935132 119.674637L750.025627 611.527153c0 0-95.739505 196.279339-239.22443 114.877377 0 0 124.413568 14.396895 177.018669-148.34563l-19.134803-19.198248-14.397918 57.467853-129.148405 67.005067 119.612215-162.744571 62.206784-124.535341 43.068911-38.271652-19.133779-90.940199-38.33305-28.732391-4.738931 57.467853c0 0-9.598612 52.607148-71.805396 38.268582-66.941622-14.334473-277.494035-52.670593-277.494035-52.670593s-33.532721-9.533121-28.733415-57.403385c4.798283-28.79993 4.798283-33.534767 4.798283-33.534767L285.851888 199.832649zM285.851888 128.0293l28.733415-14.395872-4.798283-9.538237-28.734438 19.074428L285.851888 128.0293zM702.156386 151.964432l0 4.738931 23.935132 14.335497 19.134803-9.534144L702.156386 151.964432zM415.063739 161.503692c9.598612-43.069935 52.608172-57.409524 90.876754-52.66957 90.939175 19.195178 110.073978 134.008087 110.073978 134.008087s-52.604078-90.8788-110.073978-105.274672C443.736778 123.168596 415.063739 161.503692 415.063739 161.503692L415.063739 161.503692zM568.14523 467.858032c14.399965 0 28.734438-9.537214 28.734438-23.935132 0-14.337543-14.334473-28.672016-28.734438-28.672016-14.335497 0-28.66997 14.334473-28.66997 28.672016C539.47526 458.320818 553.809733 467.858032 568.14523 467.858032L568.14523 467.858032zM371.992781 410.450555c14.398942 0 23.935132-14.397918 23.935132-28.734438 0-14.334473-9.535167-28.672016-23.935132-28.672016-19.134803 0-28.735461 14.33652-28.735461 28.672016C343.25732 396.052636 352.857978 410.450555 371.992781 410.450555L371.992781 410.450555zM381.529995 367.381643c0 0 33.533744-19.197224 57.466829-71.804373l9.599635-4.800329 4.736884 9.537214c0 0-33.533744 62.268182-66.942645 71.804373L381.529995 367.381643zM549.072849 424.848473c0 0-38.271652-43.132356-38.271652-114.936729 0-4.736884 0-9.597589 0-14.334473l9.537214 0c4.799306 9.534144 4.799306 14.334473 4.799306 14.334473s0 67.067488 38.271652 110.077048L549.072849 424.848473z"  horiz-adv-x="1024" />

    
    <glyph glyph-name="xielei" unicode="&#58903;" d="M374.406 268.154c-0.872-0.872-1.744-1.744-2.616-2.615 0.218-0.437 0.436-0.873 0.654-1.309 3.577-1.455 17.274-12.258 18.313-10.465 1.977 1.876 2.476 3.143 1.962 5.887C386.615 262.486 380.51 265.32 374.406 268.154zM579.11 378.682c-10.897-1.525-21.801-3.052-32.7-4.578-27.247-5.231-54.503-10.464-81.75-15.696-14.144-3.276-34.004-2.824-41.202-13.08-8.634-12.303-3.277-40.071-0.654-56.244 2.587-15.954-0.01-34.649 7.848-45.126 8.455-11.273 49.875-8.734 68.671-5.887 34.646 5.249 105.434-9.854 117.721 15.695 5.094 10.592 1.9 33.629 0 45.127C611.379 333.167 620.746 379.396 579.11 378.682zM581.073 313.28c-11.341-26.283-28.489-48.553-57.553-56.897-29.443-8.456-60.695 9.433-63.439 32.7 56.038-42.888 106.842 10.021 129.493 52.32C591.932 333.562 583.82 319.649 581.073 313.28zM647.126 286.467c0-0.872 0-1.744 0-2.616 9.374 2.18 18.75 4.36 28.124 6.54-4.36 1.962-8.723 3.925-13.081 5.886C657.156 293.008 652.14 289.736 647.126 286.467zM512 806.156c-233.151 0-422.156-189.006-422.156-422.157 0-233.15 189.005-422.156 422.156-422.156 233.149 0 422.154 189.006 422.154 422.156C934.155 617.15 745.15 806.156 512 806.156zM768.772 196.867c0 0.437 0 0.872 0 1.308-4.142 8.72-8.285 17.442-12.426 26.162-7.988 13.663-32.337 51.656-49.704 52.974 2.698-5.465 4.849-12.97 3.27-20.928-0.218 0-0.437 0-0.653 0-2.085 7.383-7.277 11.983-11.118 17.657-6.867-0.778-46.558-17.041-47.743-20.927 3.27-3.271 6.541-6.542 9.811-9.812 5.158 3.628 28.879 21.841 32.046 20.274 23.235-11.189 41.079-68.619 46.435-101.371 2.893-17.689-5.366-34.198-9.156-46.435-0.217 0-0.436 0-0.653 0 5.615 52.731-24.021 81.963-43.819 111.836-10.245-5.232-20.493-10.465-30.738-15.696-10.681 3.052-21.365 6.104-32.046 9.155 0-0.218 0-0.436 0-0.653 1.962-5.886 3.924-11.773 5.887-17.658 9.59-0.219 19.184-0.436 28.776-0.654 5.181-31.012-6.262-63.674-30.739-71.286 9.002 11.631 17.074 28.17 12.427 49.704-0.219 2.18-0.437 4.36-0.655 6.54-8.5 1.961-17.005 3.925-25.505 5.886-5.231 9.373-10.465 18.75-15.697 28.122-41.634-1.089-83.281-2.18-124.914-3.271-1.962-9.372-3.924-18.748-5.887-28.121-8.501-4.142-17.005-8.285-25.506-12.427 1.09-7.411 2.18-14.824 3.271-22.235 3.829-13.235 13.921-21.318 21.582-30.739-20.451 5.859-53.548 36.656-45.78 66.056 10.245 3.051 20.493 6.104 30.738 9.155 0 6.104 0 12.209 0 18.312-10.463-8.282-20.929-16.568-31.392-24.852-8.638-2.871-25.272 4.031-31.393-1.308-15.459-29.869-2.2-76.814 5.886-101.371-22.198 18.45-38.048 63.287-29.43 105.296 1.947 9.488 2.809 19.786 8.502 25.505 10.027-3.052 20.057-6.104 30.084-9.155 3.134 3.505 5.784 10.89 6.54 16.35-0.654 0.654-1.308 1.309-1.962 1.962-21.602-1.765-23.938 2.066-41.856 9.811-7.575-17.646-21.889-31.9-29.431-51.013-5.345-13.546-3.106-35.368-8.501-48.396 0 0.437 0 0.872 0 1.309-23.06 29.417 6.821 88.174 15.696 109.873-9.928-5.551-19.753-17.972-23.544-29.431-0.218 0-0.436 0-0.654 0-0.601 31.646 16.993 47.365 37.278 58.207 5.155 2.755 16.047 10.686 22.89 8.502 5.886-3.706 11.772-7.412 17.658-11.118 0.236 4.507 0.92 12.701-1.308 15.042-12.207 1.09-24.418 2.18-36.625 3.27-24.85 19.837-49.707 39.679-74.556 59.515-1.962 22.452-3.924 44.911-5.886 67.363 10.245 20.926 20.493 41.858 30.738 62.785 20.456 49.473 32.438 109.671 105.949 98.755-0.436-0.218-0.873-0.436-1.308-0.654-7.629-3.27-15.261-6.541-22.89-9.81-26.893-16.539-43.987-50.173-43.818-93.523 4.141-1.962 8.284-3.924 12.426-5.886 0 9.591 0 19.185 0 28.776 17.438 18.093 34.882 36.19 52.32 54.283-11.334-33.133-22.673-66.276-34.008-99.41-3.923-23.76-7.848-47.526-11.771-71.286-3.146-9.919-10.67-18.124-12.427-29.43 13.489-18.24 12.253-43.723 39.895-48.397 0 1.526 0 3.053 0 4.579-14.201 48.39 9.096 51.61 45.781 59.514 11.553 2.181 23.109 4.361 34.663 6.54 0 0.219 0 0.437 0 0.655-8.074 16.913-19.796 27.152-30.739 40.548-15.738-12.701-41.267 4.082-27.468 24.198 2.544 3.708 7.686 6.996 13.734 7.193 19.065 0.624 14.569-14.852 17.004-27.468 19.165-7.95 24.511-29.469 37.933-43.164 12.644 2.397 25.289 4.796 37.933 7.193-0.562 32.415 12.406 52.729 24.197 72.595-3.624 6.033-6.369 11.085-3.923 20.274 3.4 2.767 6.354 6.487 11.117 7.848 11.805 3.374 26.992-4.516 24.854-17.004-2.753-16.049-15.078-12.436-26.161-18.312-7.843-19.313-20.045-34.758-20.275-63.438 0.219 0 0.438 0 0.655 0 26.014 8.027 84.675 23.041 100.063-0.655 8.224-12.662 2.309-33.582 8.503-49.704 29.601 16.566 31.379 39.392 37.278 77.827-39.441 29.951-43.135 65.105-68.671 106.603-25.939 35.313-51.887 70.636-77.828 105.949 27.901-14.823 55.813-29.65 83.714-44.473 3.271-11.989 6.54-23.981 9.81-35.97 4.142 3.923 8.284 7.849 12.426 11.772 0 0.218 0 0.436 0 0.654-3.27 8.283-6.539 16.569-9.809 24.852-11.912 27.061-34.189 51.696-61.478 63.439-9.373 2.615-18.748 5.232-28.122 7.848-5.013 0.436-10.029 0.872-15.042 1.308 0.436 0 0.871 0 1.308 0 9.891 7.425 22.532 6.303 35.317 11.772 73.824 0.474 93.33-56.029 126.222-96.793 19.401-20.054 38.808-40.114 58.208-60.168 5.013-26.375 10.027-52.759 15.042-79.135-22.017-32.261-44.039-64.532-66.056-96.793-14.669-9.287-37.485-10.439-49.704-22.236 0.219-3.706 0.436-7.413 0.654-11.118 0.653 0.654 1.308 1.308 1.963 1.962 3.486 2.398 6.975 4.796 10.464 7.194 16.952-4.962 27.97-10.612 40.548-18.967 9.333 3.954 8.71 9.414 13.08 18.313 0.653-0.653 1.308-1.309 1.962-1.962 32.307-15.58 50.986-71.835 56.898-115.76C769.209 196.867 768.99 196.867 768.772 196.867z"  horiz-adv-x="1024" />

    
    <glyph glyph-name="weibiaoti1" unicode="&#58887;" d="M960 640 915.2 684.8 371.2 172.8 108.8 454.4 64 409.6 358.4 83.2 364.8 89.6 371.2 83.2Z"  horiz-adv-x="1024" />

    
    <glyph glyph-name="cancer" unicode="&#59006;" d="M115.482 258.304c60.16-23.654 126.669-26.726 156.211-26.803 1.075-2.714 2.253-5.35 3.43-7.962-31.539-8.525-71.219-22.298-106.726-44.032-24.064-14.72-44.544-38.963-61.286-64.896-43.904 65.869-72.013 143.053-79.334 226.278 12.518-25.779 38.246-63.104 87.706-82.586zM124.39 91.034c19.891 23.142 39.885 43.725 53.709 51.302 26.010 14.31 93.696 23.731 134.554 28.365 2.893-2.816 5.888-5.632 8.986-8.346-22.195-10.957-45.773-24.832-67.149-41.856-35.046-27.853-51.686-70.323-59.648-104.781-26.112 22.502-49.638 47.795-70.451 75.315zM205.184 6.733c13.619 26.394 37.043 59.136 77.030 86.042 19.763 13.235 61.875 25.088 96.23 33.075 34.15-15.59 84.634-24.55 126.848-24.55h3.635c42.214 0 88.986 8.986 123.136 24.55 34.432-7.987 76.57-19.84 96.23-33.075 44.006-29.594 67.738-65.971 80.614-93.466-82.202-63.514-184.986-101.709-296.909-101.709-116.378 0-223.104 40.986-306.816 109.133zM817.843 6.016c-6.989 35.814-23.322 83.968-61.747 114.483-21.376 17.050-45.030 30.899-67.226 41.856 3.072 2.714 6.17 5.53 9.062 8.346 40.858-4.608 108.467-14.054 134.554-28.365 15.488-8.499 38.682-33.254 60.851-59.725-22.323-28.186-47.539-53.965-75.494-76.595zM909.747 104.602c-17.792 29.594-40.448 58.291-67.584 74.906-35.507 21.734-75.29 35.507-106.726 44.032 1.178 2.637 2.355 5.248 3.43 7.962 29.542 0.077 96.051 3.174 156.211 26.803 80.102 31.539 98.227 110.080 98.227 110.080s-28.902-47.206-101.376-71.936c-15.258-5.171-42.368-6.81-70.554-6.81-24.576 0-49.946 1.254-68.992 2.458 32.538 8.243 75.469 22.374 113.715 45.85 70.246 43.008 110.515 166.912 113.843 177.459 11.725-41.856 18.458-85.811 18.458-131.405 0-104.090-32.973-200.294-88.653-279.398zM512 870.4c222.925 0 410.368-150.144 467.866-354.688-4.147-7.578-61.568-110.771-123.546-140.698-19.661-9.523-61.338-17.408-98.125-22.938 27.904 18.842 48.922 42.854 65.971 72.474 15.232 22.733 36.352 105.651-13.85 208.461-55.91 114.611-171.802 166.784-171.802 166.784s80.64-64.768 81.818-130.56c0.922-55.731 23.296-94.669 23.296-94.669s-55.194 57.702-65.587 99.123c-10.419 41.318-23.296 82.714-23.296 82.714s-31.078-88.704 30.080-214.17c18.842-38.502 37.965-63.872 55.45-80.461-19.2-28.621-3.814-43.136-13.875-64.23-2.432-5.35-13.773-8.96-18.56-11.418-41.139 53.274-114.816 78.003-198.886 78.003h-3.635c-84.096 0-161.382-24.73-202.598-78.003-4.71 2.458-16.026 6.067-18.586 11.418-9.958 21.12 5.35 35.61-13.773 64.23 17.485 16.589 36.608 41.958 55.45 80.461 61.158 125.491 30.080 214.17 30.080 214.17s-12.877-41.395-23.296-82.714c-10.419-41.395-65.613-99.123-65.613-99.123s22.298 38.963 23.296 94.669c1.178 65.766 81.818 130.56 81.818 130.56s-115.891-52.173-171.802-166.784c-50.202-102.835-29.184-185.728-13.85-208.461 17.024-29.619 38.067-53.632 65.971-72.474-36.89 5.53-78.566 13.414-98.125 22.938-48.794 23.578-94.822 92.672-114.253 124.723 51.994 212.634 243.277 370.662 471.962 370.662zM144.486 337.946c38.246-23.475 81.178-37.606 113.613-45.85-18.995-1.229-44.339-2.458-68.915-2.458-28.186 0-55.296 1.638-70.554 6.81-49.306 16.819-78.054 43.725-91.648 59.418-0.486 9.37-1.382 18.637-1.382 28.134 0 37.658 4.71 74.163 12.8 109.389 15.206-40.192 51.61-122.112 106.086-155.443z"  horiz-adv-x="1024" />

    
    <glyph glyph-name="yanjing" unicode="&#58909;" d="M512 618.0864c-149.7088 0-266.4448-89.2928-409.6-234.0864 123.2896-123.6992 226.7136-234.0864 409.6-234.0864 182.6816 0 317.0304 139.6736 409.6 231.424C826.9824 488.8576 692.6336 618.0864 512 618.0864L512 618.0864zM512 217.088c-90.3168 0-163.84 74.9568-163.84 166.912 0 92.16 73.5232 166.912 163.84 166.912 90.3168 0 163.84-74.9568 163.84-166.912C675.84 291.84 602.3168 217.088 512 217.088L512 217.088zM512 217.088M512 442.5728c0 14.5408 5.3248 27.648 13.9264 37.888-4.5056 0.8192-9.216 1.024-13.9264 1.024-52.6336 0-95.6416-43.6224-95.6416-97.4848s43.008-97.4848 95.6416-97.4848c52.6336 0 95.6416 43.6224 95.6416 97.4848 0 4.3008-0.4096 8.3968-0.8192 12.6976-10.0352-7.7824-22.528-12.6976-36.2496-12.6976C538.2144 384 512 410.2144 512 442.5728L512 442.5728zM512 442.5728"  horiz-adv-x="1024" />

    
    <glyph glyph-name="biaotixialajiantouweixiala" unicode="&#58981;" d="M512 153.6 819.2 614.4 204.8 614.4Z"  horiz-adv-x="1024" />

    
    <glyph glyph-name="biaotixialajiantouyixiala" unicode="&#58982;" d="M512 614.4 819.2 153.6 204.8 153.6Z"  horiz-adv-x="1024" />

    
    <glyph glyph-name="renwu" unicode="&#58905;" d="M95.115288 119.188822c-0.814552 0-1.626034 0-2.492774 0.052189-16.256242 1.339508-28.491914 15.743566-26.983561 32.18605 8.42488 103.0674 69.237921 193.099926 159.084205 240.21499-30.286794 35.612079-47.696302 81.18809-47.696302 128.832204 0 109.487623 89.100294 198.606337 198.693318 198.606337 59.476603 0 115.471918-26.272363 153.355737-72.303746 10.440793-12.730952 8.641821-31.423687-4.053316-41.86448-12.591783-10.406001-31.44006-8.577353-41.847084 4.137227-26.592658 32.250518-65.695235 50.640354-107.455337 50.640354-76.747965 0-139.16862-62.49024-139.16862-139.216715 0-45.185108 21.983687-87.696318 59.117422-113.759927l47.917336-33.863249-55.596226-18.562774c-91.234911-30.560016-155.36858-112.254643-163.315576-207.864188C123.33398 130.900561 110.451578 119.188822 95.115288 119.188822L95.115288 119.188822 95.115288 119.188822zM95.115288 119.188822M926.529061 51.629123c-15.405875 0-28.27088 11.762905-29.641087 27.28646-7.476275 89.794096-66.427922 169.490206-150.355403 203.116047l-54.409191 21.762653 49.764404 30.984688c41.200354 25.742291 65.724911 69.895907 65.724911 118.064976 0 76.812433-62.334697 139.250484-139.116431 139.250484-76.812433 0-139.199319-62.439074-139.199319-139.250484 0-45.051055 22.11774-87.62571 59.169611-113.694435l47.826262-33.812083-55.43966-18.59245c-91.385337-30.712489-155.438165-112.319112-163.367765-207.963449-1.339508-16.256242-15.526625-28.375258-32.051997-27.03575-16.355503 1.27504-28.439726 15.626909-27.169803 31.987528 8.490372 103.213733 69.424162 193.148022 159.25305 240.349043-30.407544 35.507702-47.626717 81.204463-47.626717 128.762619 0 109.61042 89.11769 198.623733 198.60736 198.623733 109.487623 0 198.541869-89.013313 198.541869-198.623733 0-51.997258-20.002566-100.70868-55.101969-137.182382 82.184791-49.152467 136.116097-134.441968 144.251382-232.032634 1.221828-16.256242-10.862395-30.608112-27.183106-31.999808C928.089603 51.74578 927.208537 51.629123 926.529061 51.629123L926.529061 51.629123 926.529061 51.629123zM926.529061 51.629123"  horiz-adv-x="1024" />

    
    <glyph glyph-name="renwu1" unicode="&#58948;" d="M655.33622 351.216924C689.746546 384.793884 711.111111 431.679716 711.111111 483.555556 711.111111 585.666844 628.33354 668.444444 526.222222 668.444444 424.110905 668.444444 341.333333 585.666844 341.333333 483.555556 341.333333 431.679716 362.697899 384.793884 397.108224 351.216924 313.042887 305.407431 256 216.254009 256 113.777778 256 90.213547 275.102521 71.111111 298.666667 71.111111 322.230812 71.111111 341.333333 90.213547 341.333333 113.777778 341.333333 215.889067 424.110905 298.666667 526.222222 298.666667 628.33354 298.666667 711.111111 215.889067 711.111111 113.777778 711.111111 90.213547 730.213632 71.111111 753.777778 71.111111 777.341924 71.111111 796.444444 90.213547 796.444444 113.777778 796.444444 216.254009 739.401557 305.407431 655.33622 351.216924ZM0 384C0 666.76992 229.168043 896 512 896 794.769778 896 1024 666.831929 1024 384 1024 101.23008 794.831957-128 512-128 229.230222-128 0 101.168071 0 384ZM526.222222 384C471.239196 384 426.666667 428.572444 426.666667 483.555556 426.666667 538.538667 471.239196 583.111111 526.222222 583.111111 581.205248 583.111111 625.777778 538.538667 625.777778 483.555556 625.777778 428.572444 581.205248 384 526.222222 384Z"  horiz-adv-x="1024" />

    
    <glyph glyph-name="ren" unicode="&#58972;" d="M515.936147 321.019597c-116.372427 0-211.047694 94.676289-211.047694 211.047694 0 116.371404 94.676289 211.04667 211.047694 211.04667s211.04667-94.675266 211.04667-211.04667C726.982818 415.695886 632.308575 321.019597 515.936147 321.019597zM515.936147 693.996287c-89.287559 0-161.928996-72.640414-161.928996-161.927973 0-89.287559 72.641437-161.928996 161.928996-161.928996 89.287559 0 161.927973 72.641437 161.927973 161.928996C677.86412 621.354849 605.223706 693.996287 515.936147 693.996287zM805.260625 16.345526c-13.563924 0-24.559349 10.995425-24.559349 24.559349 0 145.993049-118.773104 264.766153-264.766153 264.766153-145.992025 0-264.765129-118.773104-264.765129-264.766153 0-13.563924-10.995425-24.559349-24.559349-24.559349s-24.559349 10.995425-24.559349 24.559349c0 83.842547 32.649608 162.665777 91.934852 221.951021s138.107451 91.934852 221.949998 91.934852c83.842547 0 162.665777-32.649608 221.951021-91.934852S829.819974 124.746398 829.819974 40.904874C829.819974 27.340951 818.824549 16.345526 805.260625 16.345526z"  horiz-adv-x="1024" />

    
    <glyph glyph-name="mima" unicode="&#59078;" d="M319.45 28.8c89.6-89.6 233.6-89.6 316.8 0l12.8 12.8L332.25 358.4l-12.8-12.8C233.05 262.4 233.05 118.4 319.45 28.8L319.45 28.8 319.45 28.8zM335.45 307.2l262.4-262.4c-73.6-60.8-179.2-57.6-252.8 12.8C281.05 124.8 274.65 233.6 335.45 307.2L335.45 307.2 335.45 307.2zM485.85-128c179.2 0 329.6 147.2 329.6 329.6 0 44.8-16 99.2-32 137.6l336 361.6 3.2 99.2L1103.45 896 956.25 896l-80-83.2 9.6-41.6L844.25 771.2l-60.8-60.8 3.2-32-32 0L591.45 508.8c-32 12.8-67.2 16-105.6 16C306.65 524.8 156.25 377.6 156.25 195.2S303.45-128 485.85-128L485.85-128 485.85-128zM764.25 643.2l51.2 3.2 0 54.4 38.4 41.6 64 0-6.4 64 60.8 64 105.6 0 12.8-57.6c-112-115.2-204.8-214.4-320-329.6-16-16-3.2-44.8 12.8-25.6 105.6 105.6 217.6 220.8 310.4 313.6l-6.4-57.6L761.05 368c-32 60.8-83.2 99.2-144 131.2L764.25 643.2 764.25 643.2 764.25 643.2zM485.85 489.6c160 0 288-128 288-288s-128-288-288-288-288 128-288 284.8S322.65 489.6 485.85 489.6L485.85 489.6 485.85 489.6z"  horiz-adv-x="1280" />

    
    <glyph glyph-name="group7" unicode="&#58919;" d="M110.836658 538.407677C111.008455 628.587708 182.881937 701.699788 271.677392 701.842616 360.441611 701.699788 432.299474 628.587708 432.471272 538.407677 432.299474 448.187973 360.441611 375.115566 271.677392 374.972738 182.881937 375.115566 111.008455 448.187973 110.836658 538.407677M271.677392 262.455993C312.666517 262.503602 351.367623 271.993729 386.211112 288.466561 478.848564 332.441725 543.209849 427.620736 543.209849 538.407677 543.209849 640.021885 489.015806 728.551458 408.568107 776.422652 543.389453 798.997415 685.559014 765.69468 798.804259 676.458902 825.870042 655.296549 863.759019 651.773458 885.905173 673.245271 908.020088 694.621866 900.773392 738.557355 866.54681 765.496308 645.959878 939.302148 335.69508 939.302148 115.123766 765.496308 111.172443 762.377896 0.074656 684.489011 0.074656 538.407677 0.074656 403.395516 95.593608 291.219969 221.668941 267.36769 237.911536 264.281015 254.544578 262.455993 271.677392 262.455993M740.711141 76.688161C651.876642 76.830989 580.042203 149.895461 579.878216 240.083426 579.940688 271.227868 588.717938 300.333046 603.617393 325.121645 631.877946 371.977173 682.597014 403.367599 740.711141 403.550105 757.984518 403.462821 774.633175 400.614196 790.219821 395.472383 854.721663 374.167202 901.411315 312.759087 901.51283 240.083426 901.380079 149.895461 829.475361 76.830989 740.711141 76.688161M906.932234 457.880298C861.000052 494.237967 803.409121 516.03511 740.711141 516.03511 609.786456 515.987501 500.578434 421.863829 474.894832 296.571909 471.14654 278.353399 469.14745 259.476297 469.14745 240.083426 469.163068 138.453349 523.364922 49.939644 603.804809 2.11606 468.952228-20.466639 326.84514 12.804358 213.568659 102.071873 186.487256 123.178683 148.59828 126.717644 126.459935 105.229962 104.337209 83.845432 111.599523 39.878204 145.818297 13.034468 287.394376-98.530092 465.953595-138.371177 634.056641-106.710962L634.072259-106.710962C727.771729-89.000286 818.207061-49.23855 897.155441 13.034468 901.091149 16.105269 940.971404 48.368537 960.478136 78.44177 960.52499 78.481444 960.587462 78.481444 960.610887 78.513184 993.064842 123.869018 1012.251407 179.635431 1012.274832 240.083426 1012.235789 328.787563 970.91088 407.462004 906.932234 457.880298"  horiz-adv-x="1024" />

    
    <glyph glyph-name="xiabiao" unicode="&#58929;" d="M483.84 239.616l-231.424 231.424c-7.68 7.68-11.776 18.432-11.776 28.672s4.096 20.48 11.776 28.672c15.872 15.872 41.472 15.872 56.832 0l202.752-202.752 202.752 202.752c15.872 15.872 41.472 15.872 56.832 0 15.872-15.872 15.872-41.472 0-56.832l-231.424-231.424c-14.848-16.384-40.448-16.384-56.32-0.512z"  horiz-adv-x="1024" />

    
    <glyph glyph-name="pangxie" unicode="&#58885;" d="M801.79 307.564c20.669 33.725 64.769 44.318 98.486 23.642a71.623 71.623 0 0 0 23.649-98.485m-166.46-50.79c27.936 28.011 73.282 28.071 101.286 0.15 28.003-27.943 28.064-73.282 0.135-101.293m-197.542 18.574c35.52 17.388 78.418 2.695 95.82-32.831 17.396-35.526 2.688-78.418-32.823-95.82M225.772 307.564c-20.668 33.725-64.76 44.318-98.485 23.642-33.724-20.668-44.303-64.753-23.642-98.485m178.112-50.79c-27.928 28.011-73.282 28.071-101.286 0.15-28.003-27.943-28.063-73.282-0.135-101.293m197.534 18.574c-35.519 17.388-78.417 2.695-95.82-32.831-17.388-35.526-2.688-78.418 32.83-95.82M867.047 533.185L778.32 402.116c-11.997-18.236-27.846-8.784-43.169 1.321-15.33 10.098 17.808 77.397 29.82 95.625l46.548 70.678M996.81 699.855c39.602-44.716 35.465-113.073-9.235-152.668-44.723-39.603-113.073-35.452-152.676 9.249M968.813 778.505c-62.32 37.403-143.156 17.223-180.574-45.106-37.403-62.314-17.2-143.141 45.113-180.56M156.957 533.185l88.71-131.069c12.013-18.236 27.847-8.784 43.177 1.321 15.33 10.098-17.815 77.397-29.813 95.625l-46.555 70.678M27.202 699.855c-39.61-44.716-35.473-113.073 9.22-152.668 44.723-39.603 113.065-35.452 152.675 9.249M55.19 778.505c62.33 37.403 143.164 17.223 180.568-45.106 37.41-62.314 17.2-143.141-45.106-180.56M753.388 532.006a305.577 305.577 0 0 0 65.234-189.2c0-169.471-137.382-306.869-306.86-306.869S204.894 173.335 204.894 342.805c0 74.401 26.472 142.624 70.52 195.74M434.14 472.253a34.115 34.115 0 0 0-34.107-34.108h-9.97a34.107 34.107 0 0 0-34.093 34.108v132.6a34.085 34.085 0 0 0 34.093 34.092h9.97a34.092 34.092 0 0 0 34.107-34.092v-132.6z m240.32 0a34.1 34.1 0 0 0-34.092-34.108h-9.97a34.107 34.107 0 0 0-34.092 34.108v132.6a34.085 34.085 0 0 0 34.092 34.092h9.97a34.085 34.085 0 0 0 34.092-34.092v-132.6zM609.009 596.046a26.382 26.382 0 1 1 52.763 0 26.382 26.382 0 1 1-52.763 0zM635.39 601.13a9.963 9.963 0 1 0 19.926 0 9.955 9.955 0 1 0-19.926 0zM368.673 596.046a26.382 26.382 0 1 1 52.764 0 26.382 26.382 0 1 1-52.764 0zM395.055 601.13a9.97 9.97 0 1 0 19.926 0 9.97 9.97 0 1 0-19.926 0z"  horiz-adv-x="1024" />

    
    <glyph glyph-name="mima1" unicode="&#58904;" d="M762 491.5h-35.8v73.7c0 127.2-92.7 230.7-206.6 230.7H503c-113.9 0-206.6-103.5-206.6-230.7v-73.7h-35.8v73.7c0 147 108.7 266.6 242.4 266.6h16.6C653.3 831.8 762 712.2 762 565.2v-73.7zM797.8-63.6h-573c-49.4 0-89.5 40.2-89.5 89.5v394c0 49.4 40.2 89.5 89.5 89.5h573c49.4 0 89.5-40.2 89.5-89.5V26c0.1-49.4-40.1-89.6-89.5-89.6z m-573 537.2c-29.6 0-53.7-24.1-53.7-53.7V26c0-29.6 24.1-53.7 53.7-53.7h573c29.6 0 53.7 24.1 53.7 53.7V419.9c0 29.6-24.1 53.7-53.7 53.7h-573zM511.3 61.8h-0.3c-9.9 0.2-17.8 8.3-17.6 18.2 0.7 41.4 1.2 86.6 0.9 108.7-49.1 9-90.4 55.4-90.4 105.9 0 59.2 48.2 107.4 107.4 107.4s107.4-48.2 107.4-107.4c0-33.8-16.2-66-43.3-86.2-8-5.9-19.2-4.3-25.1 3.7-5.9 7.9-4.3 19.1 3.7 25.1 18.3 13.7 28.9 34.6 28.9 57.5 0 39.5-32.1 71.6-71.6 71.6s-71.6-32.1-71.6-71.6c0-36.8 34.8-71.6 71.6-71.6 4.8 0 9.5-2 12.8-5.4 6.7-6.8 7.4-7.5 5.1-138.2-0.1-9.9-8.1-17.7-17.9-17.7z"  horiz-adv-x="1024" />

    
    <glyph glyph-name="dianzan1" unicode="&#58900;" d="M782.036 448.35h-172.29c66.761 246.563-45.998 259.156-45.998 259.156-47.791 0-37.884-37.791-41.498-44.092 0-120.58-128.074-215.065-128.074-215.065v-341.946c0-33.754 45.998-45.91 64.042-45.91h258.866c24.363 0 44.202 63.892 44.202 63.892 64.043 217.77 64.043 282.564 64.043 282.564 0.001 44.993-43.293 41.398-43.293 41.398v0 0zM782.036 448.35zM323.472 448.237h-103.167c-21.306 0-21.635-20.927-21.635-20.927l21.306-344.864c0-21.95 21.987-21.95 21.987-21.95h89.291c18.602 0 18.437 14.52 18.437 14.52v347.069c0 26.486-26.221 26.151-26.221 26.151v0 0zM323.472 448.237z"  horiz-adv-x="1024" />

    
    <glyph glyph-name="zhengpinbaozhang" unicode="&#59048;" d="M512 832L134 669.7v-245.9c0-56.4 9.6-111.1 28.7-164.2 19.1-53.1 45.2-101.1 78.2-143.8 34.3-44.7 74.5-82.6 120.5-113.7C407.4-29 457.6-51 512-64c54.4 13 104.6 35 150.6 66.1s86.2 69 120.5 113.7c33 42.8 59.1 90.7 78.2 143.8 19.1 53.1 28.7 107.9 28.7 164.2V669.7L512 832z m219.4-616.3l-367.9-7.6c-17.8-1.3-35-3.2-51.5-5.7l-13.3 15.3 93.4 1.9V391.1l-1.9 85.8 53.4-15.3c3.8-1.3 3.8-3.8 0-7.6s-7-10.2-9.5-19.1l-3.8-215.4 72.4 1.9V488.3l-1.9 80.1H384.5c-22.9-2.6-38.1-4.5-45.8-5.7l-15.3 17.2 329.8 1.9 24.8 26.7 36.2-30.5c2.5-3.8 1.9-6.4-1.9-7.6H521.7l36.2-9.5c3.8-1.3 3.8-3.8 0-7.6s-7-10.2-9.5-19.1l-1.9-116.3 72.4 1.9 26.7 26.7 36.2-30.5c2.5-2.6 2.5-4.5 0-5.7l-135.4-3.8-1.9-184.9 122 1.9 28.6 26.7 38.1-30.5c1.4-2.7 0.7-4-1.8-4z"  horiz-adv-x="1024" />

    
    <glyph glyph-name="shouji" unicode="&#58881;" d="M712.725787-128H311.361362C253.799489-128 206.978723-83.33617 206.978723-28.366979V796.584851C206.978723 851.423319 253.799489 896 311.361362 896h401.364425C770.200511 896 817.021277 851.488681 817.021277 796.672V-28.43234c-0.087149-54.90383-46.820766-99.56766-104.29549-99.56766zM773.446809 787.06383c0 40.981787-26.38434 65.361702-69.392341 65.361702H319.945532C276.850383 852.425532 250.553191 828.045617 250.553191 787.06383v-806.12766c0-41.112511 26.362553-65.361702 69.392341-65.361702h384.108936C747.062468-84.425532 773.446809-81.963574 773.446809-40.851064V787.06383zM294.12766 721.702128h435.74468v-588.255319H294.12766V721.702128z m43.574468-544.680851h348.595744V678.12766H337.702128v-501.106383zM577.361702 765.276596h-130.723404a21.787234 21.787234 0 0 0 0 43.574468h130.723404a21.787234 21.787234 0 0 0 0-43.574468z m-65.361702-675.404256a65.361702 65.361702 0 1 0 0-130.723404 65.361702 65.361702 0 0 0 0 130.723404z"  horiz-adv-x="1024" />

    
    <glyph glyph-name="people" unicode="&#58889;" d="M554.386 341.915c131.559 21.037 232.4 135.298 232.4 272.686 0 152.279-123.886 276.167-276.167 276.167-152.279 0-276.167-123.888-276.167-276.167 0-137.725 101.341-252.217 233.367-272.848-222.98-22.238-397.687-210.925-397.687-439.666 0-13.728 11.126-24.854 24.854-24.854s24.854 11.126 24.854 24.854c0 216.237 175.922 392.159 392.159 392.159s392.159-175.922 392.159-392.159c0-13.728 11.126-24.854 24.854-24.854s24.854 11.126 24.854 24.854c0 229.353-175.649 418.425-399.483 439.827zM284.161 614.601c0 124.87 101.588 226.458 226.458 226.458s226.458-101.588 226.458-226.458-101.588-226.458-226.458-226.458-226.458 101.588-226.458 226.458z"  horiz-adv-x="1024" />

    
    <glyph glyph-name="zhengpinbaozheng" unicode="&#58880;" d="M512 834l-131.802-131.801h-190.668v-190.668l-127.529-127.531 127.529-127.529v-190.667h190.667l131.804-131.804 131.802 131.804h182.123v182.123l136.074 136.073-136.074 136.074v182.125h-182.125l-131.801 131.801zM224.944 271.14l-112.862 112.86 112.862 112.864v169.923h169.921l117.135 117.133 117.132-117.133h161.381v-161.381l121.403-121.405-121.403-121.403v-161.379h-161.381l-117.132-117.133-117.133 117.133h-169.923v169.923zM550.734 370.858h102.367v35.966h-102.367v85.767h114.817v35.966h-302.95v-35.966h148.016v-219.95h-74.699v174.299h-38.734v-174.299h-49.799v-33.2h329.23v33.2h-125.882v98.216z"  horiz-adv-x="1025" />

    
    <glyph glyph-name="dizhi" unicode="&#58899;" d="M504.5 831.7c-177.6 0-291-143.3-291-320.9 0-177.6 247.7-432.8 291-432.8 43.3 0 291 255.2 291 432.8 0 177.6-113.4 320.9-291 320.9z m0-417.9c-70.1 0-126.8 56.7-126.8 126.8s56.7 126.8 126.8 126.8 126.9-56.7 126.9-126.8c0-70-56.7-126.8-126.9-126.8zM280.7 182.5c-106-22.4-171.6-58.2-171.6-111.9 0-83.6 179.1-134.3 402.9-134.3 223.9 0 402.9 50.7 402.9 134.3 0 55.2-70.1 92.5-183.6 114.9-16.4 3-31.3-7.5-34.3-23.9-3-16.4 7.5-31.3 23.9-34.3 85.1-16.4 135.8-43.3 135.8-56.7 0-3-4.5-7.5-16.4-16.4-16.4-10.4-40.3-20.9-71.6-29.8-67.2-19.4-158.2-29.8-255.2-29.8S324 5 258.3 24.4c-31.3 9-55.2 19.4-71.6 29.8-13.4 9-17.9 13.4-17.9 16.4 0 11.9 46.3 37.3 123.9 53.7 16.4 3 26.9 19.4 22.4 35.8-1.6 16.5-18 26.9-34.4 22.4z"  horiz-adv-x="1024" />

    
    <glyph glyph-name="dui" unicode="&#58888;" d="M882.023 684.308l-525.539-514.815-219.87 214.506c-26.815 26.815-69.713 26.815-96.527 0s-26.815-69.713 0-91.165l262.769-257.409c16.090-10.724 32.174-21.451 48.265-21.451s37.537 5.363 48.265 21.451l573.804 557.717c26.815 26.815 26.815 69.713 0 91.165-21.451 26.815-64.353 26.815-91.165 0z"  horiz-adv-x="1024" />

    
    <glyph glyph-name="qiache" unicode="&#58882;" d="M1114.67857108 82.66071405000002m-120.53571405 0a3.29589844 3.29589844 0 1 1 241.07142892 0 3.29589844 3.29589844 0 1 1-241.07142892 0ZM391.46428595 82.66071405000002m-120.53571405 0a3.29589844 3.29589844 0 1 1 241.07142893 0 3.29589844 3.29589844 0 1 1-241.07142893 0ZM1385.85379453 805.875L722.96763358 805.875C706.30357108 805.875 692.80357107 792.375 692.80357108 775.7109375L692.80357108 263.46428595l-60.26785703 0L632.53571405 715.41294609C632.53571405 732.37834845 619.09598201 745.60714297 602.55245548 745.60714297L361.1796875 745.60714297c-16.27232108 0-39.20424142-9.64285702-50.53459845-21.54575857L95.85044607 435.07700858C91.54129453 419.28683048 90.125 392.28683048 90.125 375.59263357l0-262.64732107C90.125 96.25111643000002 103.53459845 82.66071405000002 120.04799142 82.66071405000002L210.66071405 82.66071405000002c0 99.86383905 80.93973202 180.80357108 180.80357107 180.80357107s180.80357108-80.93973202 180.80357109-180.80357107l361.60714296 0c0 99.86383905 80.93973202 180.80357108 180.80357108 180.80357107s180.80357108-80.93973202 180.80357107-180.80357107l90.13058049 0C1402.48772345 82.66071405000002 1416.01785703 96.04017893000002 1416.01785703 112.5234375l0 60.65959845L1416.01785703 775.7109375C1416.01785703 792.40513359 1402.51785703 805.875 1385.85379453 805.875zM545.62946405 474.46205393c0-16.66406251-13.56026798-30.19419608-30.10379453-30.19419608L229.73549142 444.26785702c-16.63392892 0-22.44977655 11.14955392-13.22879452 24.61941953l108.45200857 158.35379453C334.30022345 640.86160703 355.21316952 651.89062501 371.90736643 651.89062501l143.6484375-2e-8c16.60379452 0 30.07366095-13.62053595 30.07366095-30.19419607L545.62946405 474.46205393z"  horiz-adv-x="1610" />

    
    <glyph glyph-name="gouwuche1" unicode="&#58891;" d="M347.136 112.63999999999999q19.456 0 36.864-7.168t30.72-19.968 20.48-30.208 7.168-36.864-7.168-36.864-20.48-30.208-30.72-20.48-36.864-7.68q-20.48 0-37.376 7.68t-30.208 20.48-20.48 30.208-7.168 36.864 7.168 36.864 20.48 30.208 30.208 19.968 37.376 7.168zM773.12 110.59199999999998q19.456 0 37.376-7.168t30.72-19.968 20.48-30.208 7.68-36.864-7.68-36.864-20.48-30.208-30.72-20.48-37.376-7.68-36.864 7.68-30.208 20.48-20.48 30.208-7.68 36.864 7.68 36.864 20.48 30.208 30.208 19.968 36.864 7.168zM945.152 692.2239999999999q28.672 0 44.544-7.68t22.528-18.944 6.144-24.064-3.584-22.016-12.8-37.888-22.016-62.976-24.064-68.096-17.92-53.248q-13.312-40.96-33.792-56.832t-50.176-15.872l-34.816 0-66.56 0-87.04 0-95.232 0-253.952 0 15.36-92.16 516.096 0q49.152 0 49.152-41.984 0-20.48-9.728-35.328t-38.4-14.848l-49.152 0-95.232 0-117.76 0-119.808 0-98.304 0-56.32 0q-20.48 0-34.304 9.216t-23.04 24.064-14.848 32.256-8.704 32.768q-1.024 6.144-5.632 29.696t-11.264 58.88-14.848 78.848-16.384 87.552q-19.456 103.424-44.032 230.4l-76.8 0q-15.36 0-25.6 7.68t-16.896 18.432-9.216 23.04-2.56 22.528q0 20.48 13.824 33.792t37.376 13.312l22.528 0 20.48 0 25.6 0 34.816 0q20.48 0 32.768-6.144t19.456-15.36 10.24-19.456 5.12-17.408q2.048-8.192 4.096-23.04t4.096-30.208q3.072-18.432 6.144-38.912l700.416 0z"  horiz-adv-x="1024" />

    
    <glyph glyph-name="shiliangzhinengduixiang" unicode="&#58883;" d="M45.893557 481.52381L0 437.064426v-448.896359l45.893557-44.457949h108.997199L199.35014-11.831933V437.064426l-44.459384 44.459384zM108.997199 58.442577H90.352941l-4.302521-5.736695v-30.117647l4.302521-5.736694h18.644258l5.736695 5.736694v30.117647zM595.182073 896l-65.971989-1.434174-34.420168-150.588235-249.546219-306.913165v-448.896359h131.943978l127.641457-116.168067 263.887955 14.341737 271.058823 431.687708L968.067227 497.29972l-372.885154 8.605042 90.352941 242.37535z"  horiz-adv-x="1039" />

    
    <glyph glyph-name="fenxiang1" unicode="&#58906;" d="M509.952-74.752c-61.952 0-122.368 12.28288-179.2 36.352-54.784 23.04-103.936 56.32-146.432 98.816s-75.776 91.648-98.816 146.432c-24.064 56.832-36.352 117.24288-36.352 179.2s12.288 122.368 36.352 179.2C108.544 620.032 141.824 669.184 184.32 711.68s91.648 75.776 146.432 98.816c56.832 24.064 117.248 36.352 179.2 36.352s122.368-12.288 179.2-36.352c54.784-23.04 103.94112-56.32 146.43712-98.816s75.776-91.648 98.816-146.432c24.064-56.832 36.352-117.248 36.352-179.2s-12.28288-122.368-36.352-179.2c-23.04-54.784-56.32-103.94112-98.816-146.43712S743.936-15.36 689.152-38.4c-56.832-24.064-117.248-36.352-179.2-36.352z m0 875.52c-228.864 0-414.72-185.856-414.72-414.72s185.856-414.72 414.72-414.72 414.72 185.856 414.72 414.72-185.856 414.72-414.72 414.72zM699.392 297.472c-36.352 0-66.04288-19.456-79.872-49.65888L443.904 322.56c10.24 15.872 15.872 35.328 15.872 56.32 0 8.704-1.024 17.408-3.072 25.6l112.128 87.04c14.848-11.264 33.79712-17.92 54.784-17.92 50.688 0 88.576 37.888 88.576 88.064 0 50.176-37.88288 88.064-88.576 88.064-50.68288 0-88.064-37.888-88.064-88.064 0-12.8 2.56-24.576 6.66112-34.816L438.784 447.488c-20.48 30.72-54.272 52.224-92.672 52.224-62.976 0-113.664-50.688-113.664-113.664s50.688-113.664 113.664-113.664c23.552 0 45.568 6.144 63.488 17.40288l201.728-86.016c2.56-47.616 39.41888-82.944 88.05888-82.944 50.688 0 88.064 37.888 88.064 88.064S749.568 297.472 699.392 297.472z"  horiz-adv-x="1024" />

    
    <glyph glyph-name="order" unicode="&#58886;" d="M268.02606186-38.30899283999997a117.44211993 117.44211993 0 0 0-117.2812403 117.2812403V689.0277525399999A117.44211993 117.44211993 0 0 0 268.02606186 806.30899284h488.02831609a117.44211993 117.44211993 0 0 0 117.2812403-117.2812403v-609.97506528a117.44211993 117.44211993 0 0 0-117.2812403-117.28124029z m0 792.97562884a65.79976308 65.79976308 0 0 1-65.71932328-65.71932326v-609.97506528a65.79976308 65.79976308 0 0 1 65.71932328-65.71932326h488.02831609a65.79976308 65.79976308 0 0 1 65.71932328 65.71932326V689.0277525399999a65.79976308 65.79976308 0 0 1-65.71932328 65.71932326zM318.94446042 358.17882159a25.82117841 25.82117841 0 1 0 0 51.56191701h386.11107916a25.82117841 25.82117841 0 1 0 0-51.56191701zM318.94446042 236.23207242a25.82117841 25.82117841 0 1 0 0 51.24015779h263.44037172a25.82117841 25.82117841 0 1 0 0-51.64235684zM318.94446042 480.52776979a25.82117841 25.82117841 0 1 0 0 51.64235684h386.11107916a25.82117841 25.82117841 0 1 0 0-51.64235684z"  horiz-adv-x="1024" />

    


  </font>
</defs>
</svg>
